<?xml version="1.0" encoding="UTF-8"?>
<svg version="1.1" xmlns="http://www.w3.org/2000/svg" width="193" height="193">
<path d="M0 0 C19.69141805 16.47777863 33.88621856 38.26692299 36.9375 64.25 C38.61705008 95.0368058 31.35724168 120.63531326 10.51171875 143.96484375 C-5.64310287 161.02912199 -28.81929029 172.676968 -52.51953125 173.48828125 C-82.7986309 174.01584992 -107.31522363 165.24908702 -129.5625 144.1875 C-148.26292578 125.08975639 -156.33019813 100.35614754 -156.3815918 74.06542969 C-156.07439486 46.61193318 -143.57493751 22.98010524 -124.18359375 3.9921875 C-90.04266223 -27.06511829 -36.16041471 -27.89028832 0 0 Z " fill="#FDFDFD" transform="translate(156.0625,19.75)"/>
<path d="M0 0 C0.66 0 1.32 0 2 0 C2 2.64 2 5.28 2 8 C1.34 8 0.68 8 0 8 C0.495 15.92 0.495 15.92 1 24 C0.34 24 -0.32 24 -1 24 C-1.99 27.465 -1.99 27.465 -3 31 C-3.66 31 -4.32 31 -5 31 C-5.09796875 31.78503906 -5.1959375 32.57007813 -5.296875 33.37890625 C-6.20859125 39.78449885 -7.1427818 44.740157 -11 50 C-12.485 50.495 -12.485 50.495 -14 51 C-15.20882096 53.00016466 -15.20882096 53.00016466 -16 55 C-16.66 55 -17.32 55 -18 55 C-18 54.34 -18 53.68 -18 53 C-18.99 53 -19.98 53 -21 53 C-27 41 -27 41 -28.5625 37.84375 C-29.71587985 35.56206378 -30.90544147 33.33544574 -32.1875 31.125 C-32.785625 30.09375 -33.38375 29.0625 -34 28 C-34.79441072 29.87383903 -35.58539974 31.74912886 -36.375 33.625 C-36.81585938 34.66914062 -37.25671875 35.71328125 -37.7109375 36.7890625 C-38.93136322 39.82903202 -39.9981391 42.88205905 -41 46 C-41.66 46 -42.32 46 -43 46 C-43.33 47.65 -43.66 49.3 -44 51 C-45.32 51 -46.64 51 -48 51 C-48.309375 51.94875 -48.61875 52.8975 -48.9375 53.875 C-50 57 -50 57 -51 59 C-51.66 59 -52.32 59 -53 59 C-52.67 56.36 -52.34 53.72 -52 51 C-52.66 51 -53.32 51 -54 51 C-54 49.68 -54 48.36 -54 47 C-54.66 47 -55.32 47 -56 47 C-55.9071875 48.1446875 -55.9071875 48.1446875 -55.8125 49.3125 C-56 52 -56 52 -57.0625 53.6875 C-59 55 -59 55 -62.375 55.9375 C-65.9946498 56.72614625 -65.9946498 56.72614625 -68.2265625 58.92578125 C-71.70125256 61.5244579 -74.82230831 62.30963397 -79 63.25 C-79.69867188 63.42273438 -80.39734375 63.59546875 -81.1171875 63.7734375 C-84.80383105 64.64988484 -88.20991296 65.20727038 -92 65 C-92 64.34 -92 63.68 -92 63 C-92.79664062 63.01160156 -93.59328125 63.02320313 -94.4140625 63.03515625 C-104.93848858 63.12478032 -104.93848858 63.12478032 -110 62 C-110 61.34 -110 60.68 -110 60 C-102.08 59.01 -102.08 59.01 -94 58 C-94 57.34 -94 56.68 -94 56 C-93.34515625 55.99742188 -92.6903125 55.99484375 -92.015625 55.9921875 C-84.03749376 55.65413109 -77.7163973 53.33385508 -71 49 C-68.69558446 45.54337669 -68.74139865 44.05142119 -69 40 C-69.33 39.34 -69.66 38.68 -70 38 C-73.7271548 37.65298904 -77.28474164 37.47536698 -81 38 C-83.88721488 41.0247013 -85.36353287 43.86296368 -86 48 C-87.32 48 -88.64 48 -90 48 C-90 48.99 -90 49.98 -90 51 C-92.475 51.495 -92.475 51.495 -95 52 C-95 51.01 -95 50.02 -95 49 C-95.66 49 -96.32 49 -97 49 C-97.37891423 38.2483087 -92.55395513 29.42948795 -88 20 C-86.35 20 -84.7 20 -83 20 C-82.67 18.68 -82.34 17.36 -82 16 C-80.54182203 15.83197949 -79.0834516 15.66562857 -77.625 15.5 C-76.81289062 15.4071875 -76.00078125 15.314375 -75.1640625 15.21875 C-73 15 -73 15 -71 15 C-70.47215249 19.35474196 -71.74580549 21.71302429 -74.02734375 25.25390625 C-75.08224929 27.14765234 -75.56046828 28.88562109 -76 31 C-69.26762537 29.48214518 -69.26762537 29.48214518 -64.5625 24.8125 C-64.046875 23.884375 -63.53125 22.95625 -63 22 C-62.34 22 -61.68 22 -61 22 C-60.69504515 17.57335436 -60.69504515 17.57335436 -62.5 13.625 C-62.995 13.08875 -63.49 12.5525 -64 12 C-61.525 12.495 -61.525 12.495 -59 13 C-59 12.34 -59 11.68 -59 11 C-64.28 10.34 -69.56 9.68 -75 9 C-75 9.66 -75 10.32 -75 11 C-75.90621094 11.06058594 -76.81242187 11.12117188 -77.74609375 11.18359375 C-84.52000612 11.64952423 -91.25886322 12.18641453 -98 13 C-92.48975939 7.24878677 -86.64702372 6.43826816 -79 6 C-79 5.34 -79 4.68 -79 4 C-73.58482338 0.65729838 -67.11604382 1.45009255 -61 2 C-56.53504835 3.20305642 -53.16609273 4.79857113 -49.9375 8.125 C-49 10 -49 10 -49 12 C-48.34 12 -47.68 12 -47 12 C-46.67 11.34 -46.34 10.68 -46 10 C-44.9353352 19.19329609 -44.9353352 19.19329609 -47.41796875 23.40625 C-49.18922047 25.43053768 -50.96283434 27.24439382 -53 29 C-53.65484375 29.5671875 -54.3096875 30.134375 -54.984375 30.71875 C-57 32 -57 32 -61 32 C-61 32.99 -61 33.98 -61 35 C-60.236875 35.103125 -59.47375 35.20625 -58.6875 35.3125 C-55.80192188 36.05067115 -54.73820183 36.62140803 -53 39 C-53 39.99 -53 40.98 -53 42 C-52.01 42 -51.02 42 -50 42 C-49.9175 40.865625 -49.835 39.73125 -49.75 38.5625 C-48.99576067 32.4192753 -46.40642525 27.10963788 -43 22 C-42.51684025 20.00293968 -42.03391444 18.00582021 -41.5546875 16.0078125 C-40.78783277 13.23201438 -39.86136384 11.20606084 -38 9 C-35.3125 8.6875 -35.3125 8.6875 -33 9 C-33 8.34 -33 7.68 -33 7 C-32.34 7 -31.68 7 -31 7 C-30.16235732 8.95649397 -29.33000941 10.91525556 -28.5 12.875 C-27.80390625 14.51082031 -27.80390625 14.51082031 -27.09375 16.1796875 C-26 19 -26 19 -26 21 C-24.68 21 -23.36 21 -22 21 C-22.33 22.98 -22.66 24.96 -23 27 C-22.34 27 -21.68 27 -21 27 C-19.23537317 30.08809695 -19 31.23312136 -19 35 C-18.34 35 -17.68 35 -17 35 C-16.90203125 34.3709375 -16.8040625 33.741875 -16.703125 33.09375 C-15.79237484 27.88049045 -14.54467051 23.59139428 -12.01171875 18.94921875 C-10.94965478 16.90300284 -10.15323531 14.85628773 -9.375 12.6875 C-8 9 -8 9 -6 6 C-5.01 6.33 -4.02 6.66 -3 7 C-2.01 4.69 -1.02 2.38 0 0 Z " fill="#0E0E0E" transform="translate(151,65)"/>
<path d="M0 0 C1.21816406 0.23203125 1.21816406 0.23203125 2.4609375 0.46875 C4.80643424 3.98699511 5.04085153 5.32650694 4.4609375 9.46875 C0.77806659 14.50200691 -4.73970677 17.41588071 -10.5390625 19.46875 C-13.68307674 19.83972513 -16.361107 19.72503673 -19.5390625 19.46875 C-19.5390625 17.81875 -19.5390625 16.16875 -19.5390625 14.46875 C-18.8790625 14.46875 -18.2190625 14.46875 -17.5390625 14.46875 C-17.5390625 13.47875 -17.5390625 12.48875 -17.5390625 11.46875 C-16.2190625 11.46875 -14.8990625 11.46875 -13.5390625 11.46875 C-13.4565625 10.581875 -13.3740625 9.695 -13.2890625 8.78125 C-11.43744572 0.60327589 -7.68813729 -0.08244651 0 0 Z " fill="#F3F3F3" transform="translate(78.5390625,101.53125)"/>
<path d="M0 0 C0.33 0 0.66 0 1 0 C1 3.63 1 7.26 1 11 C1.66 11 2.32 11 3 11 C3.33 10.01 3.66 9.02 4 8 C3.56505106 11.37085429 2.54363847 14.13363704 1.125 17.1875 C-1.09188327 21.99344403 -2.59602067 26.90525682 -4 32 C-4.99 32 -5.98 32 -7 32 C-7.45375 31.21625 -7.9075 30.4325 -8.375 29.625 C-10.27832388 26.55039988 -11.60488472 26.0093586 -15 25 C-15 24.01 -15 23.02 -15 22 C-13.989375 21.67 -12.97875 21.34 -11.9375 21 C-7.06154545 18.85497722 -3.64670466 15.61861211 -1 11 C-0.17924191 7.30901687 0.04857096 3.77465742 0 0 Z " fill="#DADADA" transform="translate(105,75)"/>
<path d="M0 0 C2.44634051 8.79924027 -1.897736 15.36000374 -6 23 C-6.66 22.01 -7.32 21.02 -8 20 C-6.84197966 15.35460806 -4.78671268 11.00638934 -2.875 6.625 C-2.59785156 5.98433594 -2.32070313 5.34367187 -2.03515625 4.68359375 C-1.35899615 3.12143075 -0.67981293 1.56057685 0 0 Z " fill="#4A4A4A" transform="translate(63,85)"/>
<path d="M0 0 C1.32 0 2.64 0 4 0 C3.67 1.98 3.34 3.96 3 6 C3.66 6 4.32 6 5 6 C6.76462683 9.08809695 7 10.23312136 7 14 C7.66 14 8.32 14 9 14 C9.12117187 13.30132812 9.24234375 12.60265625 9.3671875 11.8828125 C9.53476563 10.97273438 9.70234375 10.06265625 9.875 9.125 C10.03742188 8.22007813 10.19984375 7.31515625 10.3671875 6.3828125 C11 4 11 4 13 2 C12.343621 6.48525648 11.29925791 10.66914029 10 15 C8.02 15 6.04 15 4 15 C2.4116728 10.8306411 1.69557341 7.46492339 2 3 C2.33 2.34 2.66 1.68 3 1 C2.01 0.67 1.02 0.34 0 0 Z " fill="#6B6B6B" transform="translate(125,86)"/>
<path d="M0 0 C3.23490776 0.55774272 4.97855006 1.37211508 7 4 C7 4.99 7 5.98 7 7 C7.66 7.33 8.32 7.66 9 8 C8.34 10.31 7.68 12.62 7 15 C7.66 15 8.32 15 9 15 C10.125 21.75 10.125 21.75 9 24 C8.34 24 7.68 24 7 24 C7.33 21.36 7.66 18.72 8 16 C7.34 16 6.68 16 6 16 C5.67 12.7 5.34 9.4 5 6 C4.01 5.67 3.02 5.34 2 5 C2 4.01 2 3.02 2 2 C1.34 2 0.68 2 0 2 C0 1.34 0 0.68 0 0 Z " fill="#747474" transform="translate(91,100)"/>
<path d="M0 0 C-0.99 0 -1.98 0 -3 0 C-3 0.66 -3 1.32 -3 2 C0.63 2 4.26 2 8 2 C8 2.66 8 3.32 8 4 C11.465 3.505 11.465 3.505 15 3 C11.77208445 5.1519437 10.71599191 5.20086443 7 5 C7 4.34 7 3.68 7 3 C6.20335938 3.01160156 5.40671875 3.02320313 4.5859375 3.03515625 C-5.93848858 3.12478032 -5.93848858 3.12478032 -11 2 C-11 1.34 -11 0.68 -11 0 C-3.57142857 -1.28571429 -3.57142857 -1.28571429 0 0 Z " fill="#626262" transform="translate(52,125)"/>
<path d="M0 0 C0.66 0.33 1.32 0.66 2 1 C1.67 1.33 1.34 1.66 1 2 C5.29 2.33 9.58 2.66 14 3 C14 3.33 14 3.66 14 4 C13.09378906 4.06058594 12.18757813 4.12117188 11.25390625 4.18359375 C4.47999388 4.64952423 -2.25886322 5.18641453 -9 6 C-6.30165 3.1324997 -3.64316175 1.5502816 0 0 Z " fill="#606060" transform="translate(62,72)"/>
<path d="M0 0 C0.66 0.99 1.32 1.98 2 3 C1.12419621 7.37901897 -0.03855768 10.63472464 -3 14 C-4.07010304 11.23556715 -4.16283213 9.46148633 -3.17578125 6.6640625 C-2.16488321 4.41525773 -1.11596524 2.19840363 0 0 Z " fill="#8D8D8D" transform="translate(59,94)"/>
<path d="M0 0 C1.91635217 -0.05423638 3.83314925 -0.09289963 5.75 -0.125 C7.35101563 -0.15980469 7.35101563 -0.15980469 8.984375 -0.1953125 C11.92470106 -0.00487687 13.52361878 0.47329896 16 2 C16 2.66 16 3.32 16 4 C10.25 4.125 10.25 4.125 8 3 C8 2.34 8 1.68 8 1 C5.36 1 2.72 1 0 1 C0 0.67 0 0.34 0 0 Z " fill="#8D8D8D" transform="translate(76,74)"/>
<path d="M0 0 C1.32 0 2.64 0 4 0 C3.67 1.98 3.34 3.96 3 6 C3.66 6 4.32 6 5 6 C5.33 6.99 5.66 7.98 6 9 C5.01 9.33 4.02 9.66 3 10 C2 9 2 9 1.875 6.0625 C2 3 2 3 3 1 C2.01 0.67 1.02 0.34 0 0 Z " fill="#A7A7A7" transform="translate(125,86)"/>
<path d="M0 0 C2.1519437 3.22791555 2.20086443 4.28400809 2 8 C1.34 7.34 0.68 6.68 0 6 C-0.33 6.66 -0.66 7.32 -1 8 C-1.66 8 -2.32 8 -3 8 C-1.125 2.25 -1.125 2.25 0 0 Z " fill="#767676" transform="translate(150,81)"/>
<path d="M0 0 C2.125 0.9375 2.125 0.9375 4 2 C4 2.33 4 2.66 4 3 C-0.455 3.495 -0.455 3.495 -5 4 C-2 1 -2 1 0 0 Z " fill="#6E6E6E" transform="translate(58,74)"/>
<path d="M0 0 C1.875 0.3125 1.875 0.3125 4 1 C4.66 1.99 5.32 2.98 6 4 C5.67 4.66 5.34 5.32 5 6 C4.34 6 3.68 6 3 6 C2.01 4.02 1.02 2.04 0 0 Z " fill="#A9A9A9" transform="translate(99,71)"/>
<path d="M0 0 C1.32 0.33 2.64 0.66 4 1 C4 1.66 4 2.32 4 3 C3.34 3 2.68 3 2 3 C2 3.66 2 4.32 2 5 C0.68 5 -0.64 5 -2 5 C-1.34 3.35 -0.68 1.7 0 0 Z " fill="#676767" transform="translate(145,71)"/>
</svg>
